# xmcd
#
# Track frame offsets:
# 150
# 15935
# 35495
# 57575
# 74980
# 90645
# 107710
# 129825
# 147655
# 161310
# 183360
# 201030
# 217820
# 245100
# 268325
# 314945
#
# Disc length: 4427 seconds
#
#
# Revision: 3
# Processed by: cddbd v1.5.1PL2 Copyright (c) Steve Scherf et al.
# Submitted via: FreeRIP 2.30 
#
DISCID=f6114910
DTITLE=Various Artist - Knights Of The Blues Table
DYEAR=1997
DGENRE=Blues
TTITLE0=Jack Bruce - Send For Me
TTITLE1=Georgie Fame - If You Live
TTITLE2=Duffy Power - Go Down Sunshine
TTITLE3=Chris Jagger (Feat. Mick Jagger) - Racketeers Blues
TTITLE4=Pete Brown - Rocks In My Bed
TTITLE5=Brian Knight - Hesitation Blues
TTITLE6=Miller Anderson - Don't Let Me Be Misunderstood
TTITLE7=Maggie Bell - Blind Man
TTITLE8=Peter Green - Travellin' Riverside Blues
TTITLE9=Clem Clempson - I've Got News For You
TTITLE10=Nine Below Zero - Nine Below Zero
TTITLE11=The Pretty Things - Judgement Day
TTITLE12=Paul Jones (& Otis Grand) - Play On Little Girl
TTITLE13=Mick Clarke - One More Mile
TTITLE14=Mick Taylor - You Shook Me
TTITLE15=Cyril Davis - K.C. Moan
EXTD=VICEROY-20.05.1997 -(290.25.001) YEAR: 1997
EXTT0=
EXTT1=
EXTT2=
EXTT3=
EXTT4=
EXTT5=
EXTT6=
EXTT7=
EXTT8=
EXTT9=
EXTT10=
EXTT11=
EXTT12=
EXTT13=
EXTT14=
EXTT15=
PLAYORDER=
